<svg xmlns="http://www.w3.org/2000/svg" width="60" height="65" viewBox="0 0 60 65">
    <g fill="#44475B" fill-rule="nonzero">
        <ellipse cx="12.321" cy="57.958" rx="1.607" ry="1.625"/>
        <path d="M56.203 48.098c.309-.5.488-1.092.488-1.725v-.546c0-1.799-1.442-3.262-3.214-3.262h-9.991c-.218 0-.43.022-.635.064l1.795-9.176c.263-1.346.293-2.67.089-3.933-.34-2.1-1.433-4.603-4.713-4.603a.963.963 0 0 0-.945.81l-.63 3.759c-.249 1.485-.59 2.9-1.014 4.205-1.174 3.613-2.656 5.465-5.284 6.606a136.909 136.909 0 0 0-2.7 1.206h-3.956v-.778a.966.966 0 0 0-.959-.973h-6.493v-1.05a.966.966 0 0 0-.959-.974H.96c-.53 0-.959.436-.959.974v5.776c0 .538.43.973.96.973.529 0 .958-.436.958-.973v-4.803h14.205V62.59H1.918V47.723a.966.966 0 0 0-.959-.974c-.53 0-.959.436-.959.974v15.84c0 .537.43.972.96.972h16.122c.53 0 .96-.435.96-.973v-1.05h6.492c.53 0 .96-.436.96-.974v-.456h3.825l2.061 1.694a9.692 9.692 0 0 0 6.136 2.204H43.379c.124.013.248.02.375.02h6.852c1.92 0 3.483-1.586 3.483-3.534 0-.585-.142-1.137-.391-1.624 1.69-.242 2.993-1.718 2.993-3.498 0-.72-.214-1.39-.58-1.95a3.27 3.27 0 0 0 1.746-2.9v-.545a3.27 3.27 0 0 0-1.654-2.851zm-12.717-3.586h9.991c.715 0 1.296.59 1.296 1.315v.546c0 .725-.581 1.315-1.296 1.315h-9.991c-.715 0-1.296-.59-1.296-1.315v-.523c.063-.237.117-.458.164-.662a1.293 1.293 0 0 1 1.132-.676zm-3.214 16.954c0 .563.13 1.095.362 1.568h-3.118a7.788 7.788 0 0 1-4.929-1.771l-2.325-1.91a.95.95 0 0 0-.604-.218h-4.165v-2.791a.966.966 0 0 0-.959-.974c-.53 0-.959.436-.959.974v4.221h-5.534V41.699h5.534v11.4c0 .538.43.974.96.974s.958-.436.958-.974v-9.648h4.165c.139 0 .276-.03.401-.09.012-.005 1.23-.573 2.844-1.273 3.16-1.372 5-3.628 6.352-7.788a31.342 31.342 0 0 0 1.083-4.488l.48-2.863c1.125.266 1.746 1.172 2.023 2.887a9.194 9.194 0 0 1-.077 3.238l-2.045 10.458a13.574 13.574 0 0 1-.19 1.019 3.275 3.275 0 0 0-.243.975c-.76 2.753-2.715 7.47-7.192 7.47-.53 0-.96.436-.96.974 0 .537.43.973.96.973 2.969 0 5.443-1.555 7.219-4.512a3.33 3.33 0 0 0-.041.518v.546c0 .931.387 1.772 1.006 2.367a3.55 3.55 0 0 0-1.006 2.482c0 1.007.418 1.917 1.086 2.561a3.548 3.548 0 0 0-1.086 2.561zm10.334 1.587h-6.852a1.578 1.578 0 0 1-1.564-1.587c0-.876.702-1.588 1.564-1.588h6.852c.863 0 1.564.712 1.564 1.588 0 .875-.701 1.587-1.564 1.587zm2.603-5.122h-9.454a1.578 1.578 0 0 1-1.565-1.587c0-.875.702-1.588 1.565-1.588h9.454c.862 0 1.564.713 1.564 1.588 0 .875-.702 1.587-1.564 1.587zm2.73-6.436c0 .724-.58 1.314-1.295 1.314H43.485c-.714 0-1.295-.59-1.295-1.314v-.546c0-.725.581-1.315 1.295-1.315h11.159c.714 0 1.295.59 1.295 1.315v.546zM20.266 13.4a1.815 1.815 0 0 0-1.476-1.237l-4.447-.642-1.989-4.007a1.819 1.819 0 0 0-1.64-1.014c-.701 0-1.33.388-1.64 1.014L7.086 11.52l-4.447.642c-.694.1-1.26.575-1.477 1.238a1.801 1.801 0 0 0 .463 1.865l3.218 3.119-.76 4.403c-.118.688.16 1.37.728 1.78a1.83 1.83 0 0 0 1.926.138l3.977-2.08 3.977 2.08c.621.324 1.36.271 1.927-.139.567-.41.846-1.091.727-1.779l-.76-4.403 3.218-3.12a1.8 1.8 0 0 0 .463-1.864zm-5.093 3.638a1.812 1.812 0 0 0-.526 1.61l.727 4.217-3.809-1.99a1.838 1.838 0 0 0-1.702-.001l-3.809 1.991.727-4.217a1.813 1.813 0 0 0-.526-1.61L3.174 14.05l4.259-.615a1.828 1.828 0 0 0 1.377-.995l1.904-3.838 1.904 3.837c.267.538.782.91 1.378.996l4.258.615-3.081 2.987zM39.552 6.9a1.815 1.815 0 0 0-1.477-1.237L33.63 5.02 31.64 1.014A1.819 1.819 0 0 0 30 0c-.701 0-1.33.388-1.64 1.014L26.37 5.02l-4.446.642c-.694.1-1.26.574-1.477 1.238a1.801 1.801 0 0 0 .463 1.865l3.218 3.119-.76 4.403c-.118.688.16 1.37.728 1.78.567.41 1.305.462 1.926.138L30 16.126l3.977 2.08a1.83 1.83 0 0 0 1.926-.138c.568-.41.847-1.092.728-1.78l-.76-4.403 3.218-3.12c.502-.487.68-1.201.463-1.864zm-5.093 3.638a1.813 1.813 0 0 0-.527 1.61l.728 4.217-3.809-1.991a1.838 1.838 0 0 0-1.702 0l-3.81 1.991.728-4.217a1.812 1.812 0 0 0-.526-1.61L22.46 7.55l4.258-.615a1.828 1.828 0 0 0 1.378-.995L30 2.103l1.904 3.838c.267.537.782.909 1.378.995l4.258.615-3.081 2.987zM59.909 13.4a1.815 1.815 0 0 0-1.477-1.237l-4.446-.642-1.989-4.007a1.819 1.819 0 0 0-1.64-1.014c-.701 0-1.33.388-1.64 1.014l-1.989 4.007-4.446.642c-.694.1-1.26.574-1.477 1.238a1.8 1.8 0 0 0 .463 1.865l3.218 3.119-.76 4.403c-.118.688.16 1.37.728 1.78.567.41 1.305.462 1.926.138l3.977-2.08 3.977 2.08a1.83 1.83 0 0 0 1.926-.138c.568-.41.847-1.092.728-1.78l-.76-4.403 3.218-3.12c.502-.487.68-1.201.463-1.864zm-5.093 3.638a1.813 1.813 0 0 0-.526 1.61l.727 4.217-3.809-1.991a1.836 1.836 0 0 0-1.702 0l-3.809 1.99.727-4.216a1.812 1.812 0 0 0-.526-1.61l-3.081-2.987 4.258-.615a1.828 1.828 0 0 0 1.378-.995l1.904-3.838 1.905 3.838c.266.537.781.909 1.377.995l4.258.615-3.081 2.987z"/>
    </g>
</svg>
