<svg xmlns="http://www.w3.org/2000/svg" width="56" height="70" viewBox="0 0 56 70">
    <g fill="#44475B" fill-rule="nonzero">
        <path d="M44.539 53.894l-3.079-2.88v9.015c0 .48-.387.868-.864.868a.866.866 0 0 1-.863-.868v-9.014l-3.08 2.878a.861.861 0 0 1-1.22-.044.87.87 0 0 1 .044-1.227l4.53-4.236a.86.86 0 0 1 1.178 0l4.53 4.236a.87.87 0 0 1 .045 1.227.861.861 0 0 1-1.221.044z"/>
        <path d="M40.596 39.194c-1.462 0-2.916.21-4.318.627V6.653C36.273 2.98 33.31.004 29.656 0H6.622C2.967.004.004 2.98 0 6.653v50.62c.004 3.672 2.967 6.648 6.622 6.653h21.93c4.381 5.666 12.09 7.52 18.551 4.461 6.461-3.059 9.945-10.212 8.384-17.214-1.56-7.003-7.748-11.98-14.89-11.979zM6.622 1.736h23.034c2.701.003 4.891 2.202 4.894 4.917v2.025h-2.015a.866.866 0 0 0-.864.867c0 .48.387.868.864.868h2.015V40.45a15.298 15.298 0 0 0-4.275 2.794H28.33a.866.866 0 0 0-.864.868c0 .479.387.867.864.867h.334a15.305 15.305 0 0 0-3.082 6.798H1.728V10.413h23.465a.866.866 0 0 0 .864-.868.866.866 0 0 0-.864-.867H1.728V6.653C1.73 3.938 3.92 1.739 6.622 1.736zm0 60.454c-2.702-.003-4.891-2.203-4.894-4.917v-3.76H25.37a15.292 15.292 0 0 0 2.014 8.678H6.622zm33.974 5.93c-4.33 0-8.397-2.084-10.94-5.605v-.325h-.23c-3.67-5.385-3.004-12.631 1.584-17.251a.867.867 0 0 0 .547-.522 13.48 13.48 0 0 1 16.22-1.41c5.115 3.216 7.491 9.447 5.825 15.273-1.666 5.827-6.971 9.84-13.006 9.84z"/>
        <path d="M28.028 10.413h1.6a.866.866 0 0 0 .864-.868.866.866 0 0 0-.864-.867h-1.6a.866.866 0 0 0-.864.867c0 .48.387.868.864.868zM18.139 54.814a3.03 3.03 0 0 0-3.023 3.037 3.03 3.03 0 0 0 3.023 3.037 3.03 3.03 0 0 0 3.023-3.037 3.034 3.034 0 0 0-3.023-3.037zm0 4.339a1.299 1.299 0 0 1-1.296-1.302c0-.719.58-1.301 1.296-1.301.715 0 1.295.582 1.295 1.301a1.3 1.3 0 0 1-1.295 1.302zM5.528 20.682h4.837a.866.866 0 0 0 .864-.868.866.866 0 0 0-.864-.868H5.528a.866.866 0 0 0-.864.868c0 .48.387.868.864.868zM14.338 20.682h3.11a.866.866 0 0 0 .864-.868.866.866 0 0 0-.864-.868h-3.11a.866.866 0 0 0-.863.868c0 .48.386.868.863.868zM21.594 19.814c0 .48.387.868.864.868h8.292a.866.866 0 0 0 .863-.868.866.866 0 0 0-.863-.868h-8.292a.866.866 0 0 0-.864.868zM5.528 28.781h8.292a.866.866 0 0 0 .864-.868.866.866 0 0 0-.864-.868H5.528a.866.866 0 0 0-.864.868c0 .48.387.868.864.868zM22.63 28.781a.866.866 0 0 0 .864-.868.866.866 0 0 0-.864-.868h-4.837a.866.866 0 0 0-.863.868c0 .48.386.868.863.868h4.837zM30.75 27.045h-3.11a.866.866 0 0 0-.864.868c0 .48.387.868.864.868h3.11a.866.866 0 0 0 .863-.868.866.866 0 0 0-.863-.868zM7.601 35.145H5.528a.866.866 0 0 0-.864.867c0 .48.387.868.864.868h2.073a.866.866 0 0 0 .864-.868.866.866 0 0 0-.864-.867zM16.411 35.145h-4.837a.866.866 0 0 0-.863.867c0 .48.386.868.863.868h4.837a.866.866 0 0 0 .864-.868.866.866 0 0 0-.864-.867zM30.75 35.145H21.42a.866.866 0 0 0-.864.867c0 .48.387.868.864.868h9.329a.866.866 0 0 0 .863-.868.866.866 0 0 0-.863-.867zM7.601 43.244H5.528a.866.866 0 0 0-.864.868c0 .479.387.867.864.867h2.073a.866.866 0 0 0 .864-.867.866.866 0 0 0-.864-.868zM23.321 43.244H11.574a.866.866 0 0 0-.863.868c0 .479.386.867.863.867h11.747a.866.866 0 0 0 .864-.867.866.866 0 0 0-.864-.868z"/>
    </g>
</svg>
