<svg xmlns="http://www.w3.org/2000/svg" width="90" height="67" viewBox="0 0 90 67">
    <g fill="#44475B" fill-rule="nonzero">
        <path d="M79.404 30.149c-3.063-1.552-8.804-1.57-9.047-1.57-.728 0-1.319.598-1.319 1.336 0 .738.59 1.337 1.319 1.337 1.481 0 5.783.231 7.868 1.288.19.096.39.141.588.141.484 0 .95-.27 1.18-.739a1.345 1.345 0 0 0-.59-1.793z"/>
        <path d="M85.977 49.176L80.532 47.6a.56.56 0 0 1-.4-.536V45.22a9.898 9.898 0 0 0 4.229-8.16v-2.543l.527-1.067a8.622 8.622 0 0 0 .883-3.793V22.77c0-.739-.59-1.337-1.318-1.337H71.766c-4.613 0-8.366 3.805-8.366 8.481v.08c0 1.09.254 2.18.734 3.154l.675 1.369V36.7c0 3.46 1.682 6.564 4.23 8.432v1.93c0 .298 0 .422-1.089.737l-2.657.77-7.685-2.833a1.346 1.346 0 0 0-.36-1.024l-2.455-2.615v-4.39c.26-.218.515-.44.763-.676 3.099-2.944 4.875-7.1 4.875-11.403v-3.506a15.626 15.626 0 0 0 1.41-6.496V1.336C61.84.598 61.25 0 60.523 0H40.788c-6.945 0-12.595 5.728-12.595 12.768v2.858c0 2.249.474 4.433 1.41 6.496v3.017c0 4.996 2.19 9.497 5.638 12.464v4.494l-2.456 2.616a1.346 1.346 0 0 0-.36 1.023l-8.11 2.99a6.881 6.881 0 0 0-1.63.865l-1.274-.645c3.791-1.673 4.992-4.026 5.05-4.143.186-.376.186-.82 0-1.196-.95-1.927-1.066-5.459-1.158-8.296a73.27 73.27 0 0 0-.116-2.632c-.45-6.41-5.257-11.245-11.182-11.245-5.926 0-10.733 4.834-11.182 11.245a73.292 73.292 0 0 0-.116 2.632c-.093 2.838-.208 6.37-1.158 8.296-.186.376-.186.82 0 1.196.057.116 1.256 2.465 5.055 4.14l-3.538 1.793C1.175 51.696 0 53.622 0 55.766v9.873c0 .738.59 1.337 1.318 1.337.728 0 1.319-.599 1.319-1.337v-9.873c0-1.125.616-2.136 1.608-2.64l4.406-2.232 1.533 1.476a5.491 5.491 0 0 0 7.642 0l1.532-1.476 1.437.728a7.109 7.109 0 0 0-1.06 3.731V65.64c0 .738.59 1.336 1.318 1.336.728 0 1.318-.598 1.318-1.336V55.353c0-1.834 1.143-3.488 2.844-4.115l8.552-3.153 3.56 5.414A2.712 2.712 0 0 0 39.6 54.73c.72 0 1.41-.287 1.926-.81l2.172-2.201v13.92c0 .739.59 1.337 1.319 1.337.728 0 1.318-.598 1.318-1.336V51.719l2.172 2.201a2.698 2.698 0 0 0 2.198.797 2.712 2.712 0 0 0 2-1.218l3.561-5.413 8.552 3.152c1.7.627 2.844 2.281 2.844 4.116V65.64c0 .738.59 1.336 1.318 1.336.728 0 1.318-.598 1.318-1.336V55.354c0-1.858-.728-3.601-1.95-4.89l.326-.094c.329-.095.777-.226 1.227-.45l3.366 3.413V65.64c0 .738.59 1.336 1.318 1.336.728 0 1.319-.598 1.319-1.336V53.333l3.342-3.389c.178.092.365.17.561.226l5.445 1.577c1.243.36 2.111 1.527 2.111 2.837V65.64c0 .738.59 1.336 1.319 1.336.728 0 1.318-.598 1.318-1.336V54.584c0-2.498-1.654-4.721-4.023-5.408zm-77.52-2.36c-2.465-.9-3.702-2.099-4.23-2.754.36-.954.593-2.046.751-3.2a9.94 9.94 0 0 0 3.48 4.352v1.602zm7.553 3.617a2.88 2.88 0 0 1-4.01 0l-1.226-1.181c.207-.393.32-.839.32-1.305v-1.425a9.684 9.684 0 0 0 5.821 0v1.424c0 .467.114.913.321 1.306l-1.226 1.18zm-2.004-6.135c-3.937 0-7.14-3.247-7.14-7.238 0-.738-.59-1.336-1.318-1.336-.074 0-.146.008-.217.02l.012-.344c.03-.92.058-1.787.11-2.532.168-2.401 1.115-4.614 2.665-6.23 1.564-1.632 3.655-2.53 5.887-2.53 2.232 0 4.323.898 5.887 2.53 1.55 1.616 2.497 3.829 2.666 6.23.052.745.08 1.612.11 2.531l.008.239c-1.434-2.24-3.65-3.892-6.512-4.824-2.644-.861-4.918-.808-5.014-.805a1.31 1.31 0 0 0-.913.408l-2.379 2.5a1.35 1.35 0 0 0 .034 1.89 1.306 1.306 0 0 0 1.865-.034l1.979-2.08c1.704.084 7.188.73 9.321 5.49-.537 3.51-3.511 6.115-7.051 6.115zm5.546 2.522v-1.594a9.86 9.86 0 0 0 3.48-4.356c.159 1.15.392 2.24.751 3.193-.525.648-1.767 1.858-4.231 2.757zm12.687-21.68v-3.317c0-.2-.045-.4-.131-.58a12.965 12.965 0 0 1-1.279-5.617v-2.858c0-5.566 4.468-10.095 9.959-10.095h18.416v12.953c0 1.946-.43 3.836-1.278 5.616-.087.182-.131.38-.131.581v3.806c0 3.619-1.436 6.976-4.042 9.452-.325.31-.663.599-1.012.869l-.023.017c-2.441 1.879-5.431 2.792-8.554 2.587-6.687-.439-11.925-6.331-11.925-13.415zm7.423 26.89c-.01.01-.03.031-.074.027a.084.084 0 0 1-.067-.041l-4.1-6.235 1.32-1.405 6.22 4.31-3.3 3.344zm5.355-5.157l-7.14-4.947V39.43a14.694 14.694 0 0 0 7.153 1.824c2.521 0 4.947-.61 7.126-1.77v2.44l-7.14 4.948zm5.495 5.143a.084.084 0 0 1-.067.041c-.043.006-.064-.017-.073-.027l-3.3-3.344 6.22-4.31 1.32 1.406-4.1 6.234zm24.073-1.127l-2.991-3.033c.052-.24.081-.504.081-.794v-.564a9.132 9.132 0 0 0 2.914.472c1 0 1.977-.153 2.907-.445v.538c0 .266.033.528.095.779l-3.006 3.047zm4.972-8.634a7.033 7.033 0 0 1-5.192 2.04c-3.815-.117-6.919-3.523-6.919-7.594v-2.499a1.35 1.35 0 0 0-.14-.597l-.814-1.651a4.452 4.452 0 0 1-.456-1.959v-.08c0-3.202 2.57-5.808 5.73-5.808h11.369v5.55c0 .898-.21 1.796-.605 2.599l-.666 1.349a1.35 1.35 0 0 0-.14.597v2.858c0 1.975-.769 3.82-2.167 5.195z"/>
        <path d="M83.043 55.729c-.728 0-1.318.598-1.318 1.336v8.574c0 .738.59 1.337 1.318 1.337.728 0 1.318-.599 1.318-1.337v-8.574c0-.737-.59-1.336-1.318-1.336zM6.957 57.496c-.728 0-1.318.598-1.318 1.336v6.807c0 .738.59 1.337 1.318 1.337.728 0 1.318-.599 1.318-1.337v-6.807c0-.738-.59-1.336-1.318-1.336zM55.816 16.11c-4.986-5.054-15.418-4.088-19.673-3.438-1.34.205-2.312 1.354-2.312 2.733v3.079c0 .738.59 1.336 1.318 1.336.728 0 1.319-.598 1.319-1.336v-3.079c0-.045.03-.084.068-.09 1.7-.26 5.072-.66 8.565-.424 4.112.277 7.09 1.323 8.85 3.109.516.522 1.35.522 1.865 0a1.35 1.35 0 0 0 0-1.89zM29.51 58.587c-.727 0-1.318.598-1.318 1.336v5.716c0 .738.59 1.337 1.319 1.337.728 0 1.318-.599 1.318-1.337v-5.716c0-.737-.59-1.336-1.318-1.336zM60.523 58.587c-.729 0-1.319.598-1.319 1.336v5.716c0 .738.59 1.337 1.319 1.337.728 0 1.318-.599 1.318-1.337v-5.716c0-.737-.59-1.336-1.318-1.336z"/>
    </g>
</svg>
